<?xml version="1.0" encoding="UTF-8"?>
<svg version="1.1" xmlns="http://www.w3.org/2000/svg" width="200" height="200">
<path d="M0 0 C7.81867476 5.63154129 12.85795327 13.24788237 15.45703125 22.4921875 C15.87148179 25.38227587 15.93564648 28.20055586 15.89453125 31.1171875 C15.88478271 31.90279053 15.87503418 32.68839355 15.86499023 33.49780273 C15.10343047 58.92357253 -2.54545285 80.18324344 -18.54296875 98.4921875 C-22.05267326 98.23476731 -23.40502822 97.62097558 -26.015625 95.18359375 C-26.89472175 94.15392038 -27.75702184 93.10975914 -28.60546875 92.0546875 C-29.0737207 91.48411621 -29.54197266 90.91354492 -30.02441406 90.32568359 C-45.44898762 71.11897602 -58.5461854 50.05048124 -56.80175781 24.61914062 C-55.67148202 15.32955317 -50.63851978 7.62742314 -43.51171875 1.84375 C-30.33587675 -7.66698102 -14.03710317 -8.323075 0 0 Z M-34.91796875 19.8671875 C-38.08996114 24.99117521 -39.06235706 29.24980065 -38.2109375 35.1796875 C-36.66504252 40.53155782 -33.22054825 44.27212968 -28.79296875 47.4921875 C-23.52382757 49.11346171 -18.48035527 49.66915402 -13.26171875 47.578125 C-8.81024384 45.00357794 -5.80328766 42.19365083 -3.54296875 37.4921875 C-1.94123486 31.40782334 -2.33818008 27.04715453 -5.54296875 21.4921875 C-9.79409859 16.43678985 -13.80959513 13.8007942 -20.41796875 13.0546875 C-26.26871392 13.30127063 -30.82982393 15.77904268 -34.91796875 19.8671875 Z " fill="url(#paint0_linear_2230_413)" transform="translate(61.54296875,84.5078125)"/>
<path d="M0 0 C2.140625 2.28515625 2.140625 2.28515625 4.25 5.0625 C4.95640625 5.98160156 5.6628125 6.90070313 6.390625 7.84765625 C7.18726563 8.91306641 7.18726563 8.91306641 8 10 C7.67 10.66 7.34 11.32 7 12 C4.1398511 12.94952235 1.31293353 13.7848305 -1.59375 14.56640625 C-2.45560913 14.80536118 -3.31746826 15.0443161 -4.20544434 15.29051208 C-6.96828624 16.05536459 -9.73391046 16.80948499 -12.5 17.5625 C-15.26561883 18.3206602 -18.0305813 19.0810657 -20.79455566 19.84519958 C-22.51737291 20.32094717 -24.24123601 20.79292572 -25.96618652 21.26087952 C-29.78855499 22.03957087 -29.78855499 22.03957087 -33 24 C-33.68228124 26.27773486 -33.68228124 26.27773486 -33 29 C-30.89934422 31.38309689 -28.40306121 33.21536314 -25.875 35.125 C-25.15594482 35.68759521 -24.43688965 36.25019043 -23.69604492 36.82983398 C-22.20621353 37.99346314 -20.7112616 39.15056414 -19.21142578 40.30126953 C-16.49187155 42.39032433 -13.80186816 44.51528293 -11.11181641 46.64208984 C-9.40820012 47.98695274 -7.69937755 49.32483012 -5.98828125 50.66015625 C-5.00214844 51.43230469 -4.01601562 52.20445312 -3 53 C-2.0925 53.69996094 -1.185 54.39992187 -0.25 55.12109375 C3.78426182 58.48998253 5.66128487 61.71994538 6.421875 66.83984375 C6.69826563 72.92811517 6.14327004 77.4092411 2.49609375 82.37890625 C-0.77378698 85.9219885 -4.27629189 88.15838052 -9 89 C-11.5781909 89.08908751 -14.12838318 89.12631994 -16.70605469 89.11352539 C-17.47717087 89.11367142 -18.24828705 89.11381744 -19.04277039 89.1139679 C-21.5858341 89.11327249 -24.12882412 89.10549749 -26.671875 89.09765625 C-28.43735718 89.09579075 -30.20283987 89.09436747 -31.96832275 89.09336853 C-36.61091546 89.08955375 -41.2534768 89.07973232 -45.89605713 89.06866455 C-50.63512752 89.0584281 -55.37420299 89.05386612 -60.11328125 89.04882812 C-69.40886794 89.03810913 -78.70443136 89.02104517 -88 89 C-85.78118835 82.99924563 -83.07068016 78.03538739 -78 74 C-72.77933652 72.57563742 -67.70150403 72.6906639 -62.34375 72.8046875 C-60.83059002 72.80089514 -59.31743527 72.79269673 -57.80432129 72.78030396 C-53.84465384 72.75959154 -49.88776516 72.79826517 -45.9284668 72.84979248 C-41.8793643 72.89182222 -37.83049985 72.87703394 -33.78125 72.8671875 C-25.85331351 72.85620298 -17.92740777 72.90802339 -10 73 C-9.67 71.35 -9.34 69.7 -9 68 C-11.53925472 65.89290958 -14.08158773 63.78956979 -16.625 61.6875 C-17.39247559 61.05247559 -18.15995117 60.41745117 -18.95068359 59.76318359 C-23.19697978 56.26308376 -27.48036633 52.83080447 -31.85009766 49.48632812 C-47.6314766 37.38220585 -47.6314766 37.38220585 -49 29 C-49.06988041 22.66417622 -47.71635446 18.12254263 -44 13 C-39.66322514 9.67056108 -35.31871631 7.88159625 -30.1171875 6.38671875 C-29.38049835 6.16804642 -28.6438092 5.94937408 -27.88479614 5.72407532 C-26.3382511 5.26795347 -24.79018889 4.81694724 -23.24072266 4.37084961 C-20.87058036 3.68622337 -18.50762208 2.98001949 -16.14453125 2.27148438 C-14.63579768 1.8294267 -13.1266948 1.38862708 -11.6171875 0.94921875 C-10.91294647 0.73786789 -10.20870544 0.52651703 -9.48312378 0.3087616 C-3.19482869 -1.47366767 -3.19482869 -1.47366767 0 0 Z " fill="url(#paint0_linear_2230_413)" transform="translate(145,95)"/>
<path d="M0 0 C7.0065853 5.76097013 12.15665791 11.89087204 13.28125 21.1875 C13.31576866 22.56210611 13.32527121 23.93751985 13.3125 25.3125 C13.30605469 26.05089111 13.29960937 26.78928223 13.29296875 27.55004883 C12.62120675 48.20452066 -1.00625761 67.13125761 -15.1875 81.3125 C-19.06974006 81.06884477 -20.81136792 78.98396871 -23.3125 76.1875 C-35.8950503 61.65641637 -45.58727242 45.04807117 -47.5625 25.625 C-46.61430024 17.24923544 -43.93303728 9.61211425 -38.1875 3.3125 C-26.42836169 -5.88602193 -13.17353723 -6.97422559 0 0 Z M-28.5 16.8125 C-31.32862473 21.00305516 -31.60246987 24.33286155 -31.1875 29.3125 C-29.51576284 34.13636806 -26.75469991 37.432188 -22.18359375 39.72265625 C-17.4052188 41.13466137 -12.88718261 39.99237304 -8.375 38.1875 C-4.25117204 34.65279032 -2.43818349 31.06728444 -1.6875 25.8125 C-2.39324038 20.87231733 -3.88934907 17.24658742 -7.765625 13.984375 C-15.08554615 9.30226327 -22.58897288 10.42220041 -28.5 16.8125 Z " fill="url(#paint0_linear_2230_413)" transform="translate(182.1875,20.6875)"/>

<defs>
<linearGradient id="paint0_linear_2230_413" x1="4.15991" y1="12" x2="19.8399" y2="12" gradientUnits="userSpaceOnUse">
<stop stop-color="#FC4A1A"/>
<stop offset="1" stop-color="#F7B733"/>
</linearGradient>
</defs>

</svg>
