<?xml version="1.0" encoding="UTF-8"?>
<svg version="1.1" xmlns="http://www.w3.org/2000/svg" width="202" height="76">
<path d="M0 0 C2.99034788 2.07663047 4.51470228 3.29213121 6.25 6.5625 C6.44153645 11.94148194 5.9382553 16.84139049 3.25 21.5625 C2.26 21.2325 1.27 20.9025 0.25 20.5625 C0.58 15.6125 0.91 10.6625 1.25 5.5625 C-6.37601905 10.6465127 -10.58021915 17.07484613 -13.29296875 25.84765625 C-14.33058703 32.01128622 -13.9562467 38.33690515 -13.75 44.5625 C-8.80780608 40.67426098 -5.2828166 36.75781853 -1.75 31.5625 C-1.42 31.5625 -1.09 31.5625 -0.75 31.5625 C-0.96460257 37.57137195 -2.15152213 41.3031022 -6.0078125 45.98046875 C-7.75 47.5625 -7.75 47.5625 -11.25 48.8125 C-15.66183576 48.49736887 -17.51417892 47.57256612 -20.75 44.5625 C-24.29328865 37.32186667 -22.9039286 28.6381758 -20.7734375 21.11328125 C-17.82503723 12.92433729 -14.4951313 5.3843276 -6.6875 0.9375 C-3.96683993 -0.22849717 -2.99168546 -0.47594996 0 0 Z " fill="#627740" transform="translate(148.75,4.4375)"/>
<path d="M0 0 C1.67542976 0.28604898 3.34385343 0.61781233 5 1 C4.42978625 7.95660771 2.98697306 14.31427305 1 21 C6.94288764 16.41548667 8.62225252 9.9106448 11 3 C13.86724686 3.57344937 14.8614515 3.8614515 17 6 C16.76219315 19.79279721 11.04816598 33.40102223 2.5625 44.0625 C-0.6959233 46.52618591 -2.93608895 47 -7 47 C-8.9375 45.5625 -8.9375 45.5625 -10 44 C-8.63875 43.4121875 -8.63875 43.4121875 -7.25 42.8125 C-0.23420584 38.89984556 1.97055435 32.08939945 5 25 C3.87326523 25 2.74823981 25.09882317 1.625 25.1875 C-1 25 -1 25 -2.60546875 23.734375 C-5.19259036 20.51677838 -5.21584906 17.01945961 -5 13 C-2.35483871 2.35483871 -2.35483871 2.35483871 0 0 Z " fill="#637E3E" transform="translate(174,23)"/>
<path d="M0 0 C0.33 1.32 0.66 2.64 1 4 C-3.62 4.33 -8.24 4.66 -13 5 C-13.67020575 7.25753516 -14.33989066 9.51522556 -15.0078125 11.7734375 C-15.71752292 14.08139342 -16.46692819 16.37729133 -17.2421875 18.6640625 C-20.40630499 28.07407733 -22.11938607 37.11609435 -23 47 C-24.9375 46.625 -24.9375 46.625 -27 46 C-31.52848479 36.94303042 -26.94956044 22.93479987 -24 14 C-23.35262207 12.32574672 -22.69350997 10.65567695 -22 9 C-24.31 9.66 -26.62 10.32 -29 11 C-29.66 10.34 -30.32 9.68 -31 9 C-30.8359375 7.0078125 -30.8359375 7.0078125 -30 5 C-20.57584536 -0.93372699 -10.82198288 -1.54898788 0 0 Z " fill="#617B3E" transform="translate(38,5)"/>
<path d="M0 0 C3.875 0.875 3.875 0.875 5 2 C4.42085867 9.06552429 3.21649689 16.0199062 2 23 C4.3260857 23.38063221 6.66055264 23.71269945 9 24 C10.21053269 22.98720032 10.21053269 22.98720032 10.3125 20.9375 C9.99251102 17.9296036 9.35254091 16.68706589 7.875 14.125 C6.09718737 10.8018096 5.97627762 10.16078502 6.5625 6.1875 C8.731919 1.37704918 8.731919 1.37704918 11 0 C14.14924548 -0.39365568 16.11909116 -0.52854531 18.875 1.125 C20.52149743 3.86916239 20.39964378 5.8694571 20 9 C19.01 9.66 18.02 10.32 17 11 C16.34 9.35 15.68 7.7 15 6 C13.58999336 8.82001327 13.75451549 10.87007255 14 14 C14.495 14.804375 14.99 15.60875 15.5 16.4375 C17.49812179 19.85095807 17.504151 22.11083515 17 26 C15.4375 27.9375 15.4375 27.9375 13 29 C9.2558336 29.26274852 6.56471391 29.18823797 3 28 C2.01 28.33 1.02 28.66 0 29 C-2.8444579 26.70608234 -3.90801468 25.41443934 -4.7109375 21.796875 C-5.0158251 17.79213521 -4.58570868 14.71608937 -3.6875 10.8125 C-3.42324219 9.62269531 -3.15898438 8.43289062 -2.88671875 7.20703125 C-2.15114903 4.54666677 -1.3555035 2.38544938 0 0 Z " fill="#627B41" transform="translate(84,21)"/>
<path d="M0 0 C1.32 0.66 2.64 1.32 4 2 C3.51171875 4.01822917 3.0234375 6.03645833 2.53515625 8.0546875 C1.75604986 12.34261608 1.39203223 16.66179141 1 21 C1.37753418 20.09906616 1.37753418 20.09906616 1.76269531 19.17993164 C2.90967826 16.46728018 4.07944236 13.76505705 5.25 11.0625 C5.84361328 9.64420898 5.84361328 9.64420898 6.44921875 8.19726562 C6.84238281 7.29814453 7.23554687 6.39902344 7.640625 5.47265625 C7.99672852 4.64000244 8.35283203 3.80734863 8.71972656 2.94946289 C10 1 10 1 12.14746094 0.22045898 C12.75879883 0.14770752 13.37013672 0.07495605 14 0 C14.98789185 3.74081713 14.9722757 5.89078435 13.625 9.5 C11.61206498 15.58476248 11.28947728 21.63149993 11 28 C7.83884224 26.63016497 7.0072908 26.0109362 5 23 C4.01 24.32 3.02 25.64 2 27 C-0.875 26.75 -0.875 26.75 -4 26 C-6.70479206 21.86166815 -6.60571547 17.77361475 -6 13 C-3.28205128 3.28205128 -3.28205128 3.28205128 0 0 Z " fill="#637D40" transform="translate(46,22)"/>
<path d="M0 0 C2.1875 1.2109375 2.1875 1.2109375 4 3 C5.65766107 10.3253993 3.5314303 17.57187361 0 24 C-2.3125 27.1875 -2.3125 27.1875 -5 29 C-8.625 29.0625 -8.625 29.0625 -12 28 C-14.85595408 25.04465077 -15.43163893 22.87422228 -15.4375 18.8125 C-15.24570625 11.98098926 -13.09266477 6.95859503 -9.1875 1.4375 C-5.99124306 -0.66289742 -3.73949553 -0.46743694 0 0 Z M-4.01171875 5.625 C-6.3354079 8.40064441 -6.99237713 10.49145295 -7.8125 14 C-8.06644531 15.03125 -8.32039063 16.0625 -8.58203125 17.125 C-8.97947483 19.85881754 -8.90841664 21.4292427 -8 24 C-3.17024582 19.82291531 -0.38389245 15.42310866 0.1796875 8.9296875 C0.18634461 7.28538057 0.10256989 5.64111822 0 4 C-2.17170352 3.79054258 -2.17170352 3.79054258 -4.01171875 5.625 Z " fill="#637842" transform="translate(36,21)"/>
<path d="M0 0 C1.32 0.66 2.64 1.32 4 2 C4 3.65 4 5.3 4 7 C6.64 7.33 9.28 7.66 12 8 C11.67 8.99 11.34 9.98 11 11 C8.03 11 5.06 11 2 11 C1.8453125 12.36125 1.8453125 12.36125 1.6875 13.75 C1.21405774 17.19638115 0.35489739 20.45880672 -0.5625 23.8125 C-1.94248826 29.19716007 -2.81081374 34.45066442 -2 40 C-1.34 40.99 -0.68 41.98 0 43 C-3.2870282 42.72608098 -4.78993231 42.18168017 -7.3125 40 C-12.05125407 31.57554832 -7.38936226 20.69343859 -5 12 C-5.99 12 -6.98 12 -8 12 C-9.32 12 -10.64 12 -12 12 C-12 10.68 -12 9.36 -12 8 C-8.5647952 5.70986347 -7.014669 5.82157027 -3 6 C-2.01 4.02 -1.02 2.04 0 0 Z " fill="#657F41" transform="translate(169,7)"/>
<path d="M0 0 C1.32 0.66 2.64 1.32 4 2 C4 3.32 4 4.64 4 6 C6.31 6.66 8.62 7.32 11 8 C11 8.99 11 9.98 11 11 C8.03 11 5.06 11 2 11 C-0.69652533 20.99595669 -3 30.57268809 -3 41 C-2.34 41 -1.68 41 -1 41 C-1 41.66 -1 42.32 -1 43 C-3.92945444 42.68330222 -5.54656433 42.46423176 -7.640625 40.3203125 C-10.90559972 34.74733842 -9.60448489 27.08173215 -8.09765625 21.03515625 C-7.16959908 17.65585906 -6.1157005 14.32219747 -5 11 C-6.65 10.67 -8.3 10.34 -10 10 C-9.34 8.68 -8.68 7.36 -8 6 C-6.35 6.33 -4.7 6.66 -3 7 C-2.690625 6.030625 -2.38125 5.06125 -2.0625 4.0625 C-1 1 -1 1 0 0 Z " fill="#617742" transform="translate(113,7)"/>
<path d="M0 0 C4.875 0.875 4.875 0.875 6 2 C6.969375 1.979375 7.93875 1.95875 8.9375 1.9375 C12 2 12 2 14 4 C14 4.99 14 5.98 14 7 C13.443125 6.731875 12.88625 6.46375 12.3125 6.1875 C9.81563788 5.73406803 9.81563788 5.73406803 7.5625 7.75 C2.12529523 13.77455713 -0.38304628 22.20922299 -2 30 C-3.65 29.67 -5.3 29.34 -7 29 C-7.71081997 18.69311051 -4.80977479 9.08206759 0 0 Z " fill="#637D3D" transform="translate(67,20)"/>
<path d="M0 0 C1.1817827 3.54534811 0.72570094 5.37149532 0 9 C-0.14824219 9.79019531 -0.29648437 10.58039062 -0.44921875 11.39453125 C-0.98413329 13.9249426 -1.68570673 16.33898329 -2.4375 18.8125 C-4.47080994 26.08856007 -5.20105387 33.50870512 -6 41 C-7.9375 40.625 -7.9375 40.625 -10 40 C-11.53266582 36.93466836 -11.10276471 33.73245728 -11.0625 30.375 C-11.05798828 29.66859375 -11.05347656 28.9621875 -11.04882812 28.234375 C-11.03703875 26.48954725 -11.01910324 24.744763 -11 23 C-10.67 23.66 -10.34 24.32 -10 25 C-9.34 25 -8.68 25 -8 25 C-8.061875 23.9790625 -8.061875 23.9790625 -8.125 22.9375 C-7.83867738 16.20891843 -4.78391836 4.78391836 0 0 Z " fill="#667D47" transform="translate(21,11)"/>
<path d="M0 0 C3.875 0.875 3.875 0.875 5 2 C4.46725595 8.39292858 3.41824654 14.66912237 2.3046875 20.984375 C2.00500154 23.95049753 2.24643605 26.13433426 3 29 C0.77888714 28.61704951 -0.80380283 28.13079812 -2.6875 26.875 C-5.3165885 23.11915929 -5.10734545 18.79263878 -4.51171875 14.39453125 C-4.23972656 13.21246094 -3.96773437 12.03039062 -3.6875 10.8125 C-3.42324219 9.62269531 -3.15898437 8.43289062 -2.88671875 7.20703125 C-2.15114903 4.54666677 -1.3555035 2.38544938 0 0 Z " fill="#617840" transform="translate(156,21)"/>
<path d="M0 0 C0.66 0.33 1.32 0.66 2 1 C1.34515625 2.0621875 0.6903125 3.124375 0.015625 4.21875 C-2.80105617 9.85211233 -2.441901 15.32964463 -2.25 21.5 C-2.23195312 22.60859375 -2.21390625 23.7171875 -2.1953125 24.859375 C-2.1485115 27.57383296 -2.08296375 30.28644716 -2 33 C-4.475 33.495 -4.475 33.495 -7 34 C-10.27227413 28.18552087 -9.55165111 22.33727816 -7.8125 16.0625 C-3.79326923 3.79326923 -3.79326923 3.79326923 0 0 Z " fill="#668042" transform="translate(137,15)"/>
<path d="M0 0 C0.66 0 1.32 0 2 0 C1.67 3.3 1.34 6.6 1 10 C1.2475 8.88625 1.495 7.7725 1.75 6.625 C3 3 3 3 5.078125 1.7734375 C5.71234375 1.51820312 6.3465625 1.26296875 7 1 C6.67515625 2.34191406 6.67515625 2.34191406 6.34375 3.7109375 C3.8225729 14.24748586 3.8225729 14.24748586 4 25 C4.66 25.99 5.32 26.98 6 28 C2.7129718 27.72608098 1.21006769 27.18168017 -1.3125 25 C-5.66578446 17.26082763 -2.09352042 8.06254591 0 0 Z " fill="#637843" transform="translate(163,22)"/>
<path d="M0 0 C3.875 0.875 3.875 0.875 5 2 C4.48835292 8.44675319 3.35842104 14.68268273 2 21 C1.34 21 0.68 21 0 21 C-0.33 21.99 -0.66 22.98 -1 24 C-3.96275341 21.03724659 -3.7847229 18.18134406 -4.11328125 14.109375 C-3.9268647 8.99256198 -2.0839191 4.62397499 0 0 Z " fill="#647A45" transform="translate(84,21)"/>
<path d="M0 0 C1.32 0 2.64 0 4 0 C3.855625 0.928125 3.71125 1.85625 3.5625 2.8125 C2.83635037 7.85405316 2.4312193 12.92629204 2 18 C3.65 18 5.3 18 7 18 C6.34 19.32 5.68 20.64 5 22 C-1.32491289 21.52264808 -1.32491289 21.52264808 -3.9375 19.5 C-5.54532609 15.71687979 -5.23381522 12.05279715 -5 8 C-4.01 7.67 -3.02 7.34 -2 7 C-0.77030122 3.48809191 -0.77030122 3.48809191 0 0 Z " fill="#647A42" transform="translate(26,28)"/>
<path d="M0 0 C1.32 0.66 2.64 1.32 4 2 C3.68817931 3.41681634 3.37551263 4.83344651 3.0625 6.25 C2.88847656 7.03890625 2.71445312 7.8278125 2.53515625 8.640625 C2.35855469 9.41921875 2.18195312 10.1978125 2 11 C1.87496094 11.73734375 1.74992187 12.4746875 1.62109375 13.234375 C1.41613281 13.81703125 1.21117187 14.3996875 1 15 C0.01 15.33 -0.98 15.66 -2 16 C-2.66 16.66 -3.32 17.32 -4 18 C-4.738041 5.33029613 -4.738041 5.33029613 0 0 Z " fill="#627945" transform="translate(46,22)"/>
<path d="M0 0 C4.875 0.875 4.875 0.875 6 2 C6.969375 1.979375 7.93875 1.95875 8.9375 1.9375 C12 2 12 2 14 4 C14 4.99 14 5.98 14 7 C13.46375 6.731875 12.9275 6.46375 12.375 6.1875 C9.42717399 5.95477689 8.95188505 6.5799856 6.75 8.4375 C5.38875 9.7059375 5.38875 9.7059375 4 11 C4.33 9.68 4.66 8.36 5 7 C3.68 6.67 2.36 6.34 1 6 C1 5.01 1 4.02 1 3 C0.01 5.97 -0.98 8.94 -2 12 C-2.66 11.67 -3.32 11.34 -4 11 C-3.39301257 6.87248551 -1.96189209 3.6678852 0 0 Z " fill="#5D7839" transform="translate(67,20)"/>
<path d="M0 0 C2.86724686 0.57344937 3.8614515 0.8614515 6 3 C5.84980476 11.71132376 2.72300715 19.81088255 0 28 C-0.66 27.67 -1.32 27.34 -2 27 C-1.50230217 24.1797123 -0.86151878 21.5927023 0.0625 18.875 C1.1550103 16.02863385 1.1550103 16.02863385 1 13 C1.66 12.01 2.32 11.02 3 10 C3.16713569 7.37468476 3.16713569 7.37468476 3 5 C2.01 5 1.02 5 0 5 C-0.33 6.65 -0.66 8.3 -1 10 C-2.46726798 6.18510326 -1.43336419 3.70988378 0 0 Z " fill="#607540" transform="translate(185,26)"/>
<path d="M0 0 C1.32 0.66 2.64 1.32 4 2 C4 3.32 4 4.64 4 6 C3.34 6 2.68 6 2 6 C2 6.99 2 7.98 2 9 C0.35 9.33 -1.3 9.66 -3 10 C-3 10.66 -3 11.32 -3 12 C-5.31 11.34 -7.62 10.68 -10 10 C-9.34 8.68 -8.68 7.36 -8 6 C-6.35 6.33 -4.7 6.66 -3 7 C-2.690625 6.030625 -2.38125 5.06125 -2.0625 4.0625 C-1 1 -1 1 0 0 Z " fill="#5E7140" transform="translate(113,7)"/>
<path d="M0 0 C1.3243121 3.97293629 0.26698573 5.4236402 -1.3125 9.25 C-4.85442234 18.1341588 -6.66392182 26.54795759 -8 36 C-8.33 36 -8.66 36 -9 36 C-9.71009545 28.83592591 -8.60927922 22.54769915 -6.6875 15.6875 C-6.47456299 14.92324707 -6.26162598 14.15899414 -6.04223633 13.37158203 C-3.00014432 3.00014432 -3.00014432 3.00014432 0 0 Z " fill="#7D9B5B" transform="translate(21,11)"/>
<path d="M0 0 C1.26397964 4.5819262 0.96767152 8.35517668 0 13 C-0.99 14.485 -0.99 14.485 -2 16 C-2 17.32 -2 18.64 -2 20 C-2.99 20.33 -3.98 20.66 -5 21 C-5.33 18.36 -5.66 15.72 -6 13 C-5.01 12.34 -4.02 11.68 -3 11 C-2.24093147 8.88159744 -2.24093147 8.88159744 -1.875 6.5 C-1.06701031 2.13402062 -1.06701031 2.13402062 0 0 Z " fill="#6D8B46" transform="translate(186,34)"/>
<path d="M0 0 C0.66 0.33 1.32 0.66 2 1 C1.67386719 1.70125 1.34773437 2.4025 1.01171875 3.125 C-4.19623662 14.17629453 -4.19623662 14.17629453 -7 26 C-7.66 25.34 -8.32 24.68 -9 24 C-8.88828338 16.20776601 -5.60665151 5.60665151 0 0 Z " fill="#839F62" transform="translate(137,15)"/>
<path d="M0 0 C1.31223496 3.93670488 0.24296256 6.12488144 -1 10 C-1.66 10 -2.32 10 -3 10 C-3.33 9.01 -3.66 8.02 -4 7 C-5.65 7.66 -7.3 8.32 -9 9 C-9.33 7.35 -9.66 5.7 -10 4 C-6.5647952 1.70986347 -5.014669 1.82157027 -1 2 C-0.67 1.34 -0.34 0.68 0 0 Z " fill="#5E773C" transform="translate(167,11)"/>
<path d="M0 0 C1.28961193 2.57922387 0.79211692 3.40291211 0.00390625 6.1328125 C-0.22490234 6.93847656 -0.45371094 7.74414062 -0.68945312 8.57421875 C-0.93630859 9.41597656 -1.18316406 10.25773437 -1.4375 11.125 C-1.68048828 11.97449219 -1.92347656 12.82398438 -2.17382812 13.69921875 C-2.7761431 15.80141612 -3.38510525 17.90145431 -4 20 C-4.33 20 -4.66 20 -5 20 C-5.05428973 17.77110504 -5.09292338 15.54182529 -5.125 13.3125 C-5.15980469 11.45044922 -5.15980469 11.45044922 -5.1953125 9.55078125 C-5.00829894 6.15087476 -4.65693882 3.95725173 -3 1 C-2.01 0.67 -1.02 0.34 0 0 Z " fill="#728D4E" transform="translate(111,18)"/>
<path d="M0 0 C0.66 0.33 1.32 0.66 2 1 C1.67 2.32 1.34 3.64 1 5 C1.99 5.33 2.98 5.66 4 6 C3.34 7.32 2.68 8.64 2 10 C1.34 10 0.68 10 0 10 C-2.1385485 12.1385485 -2.42655063 13.13275314 -3 16 C-2.34 16.33 -1.68 16.66 -1 17 C-2.32 16.67 -3.64 16.34 -5 16 C-5 14.02 -5 12.04 -5 10 C-4.34 9.67 -3.68 9.34 -3 9 C-2.09274566 6.88672575 -2.09274566 6.88672575 -1.375 4.4375 C-1.11460938 3.61121094 -0.85421875 2.78492188 -0.5859375 1.93359375 C-0.39257812 1.29550781 -0.19921875 0.65742188 0 0 Z " fill="#6C8946" transform="translate(68,21)"/>
<path d="M0 0 C0.66 0.33 1.32 0.66 2 1 C2.625 3.5625 2.625 3.5625 3 6 C3.66 5.34 4.32 4.68 5 4 C7.475 7.465 7.475 7.465 10 11 C9.01 11 8.02 11 7 11 C6.01 11.33 5.02 11.66 4 12 C0.92203555 9.5177706 0.05603723 8.25432283 -0.8125 4.3125 C-0.874375 3.219375 -0.93625 2.12625 -1 1 C-0.67 0.67 -0.34 0.34 0 0 Z " fill="#5A6F3A" transform="translate(80,38)"/>
<path d="M0 0 C1.9375 0.3125 1.9375 0.3125 4 1 C4.33 1.99 4.66 2.98 5 4 C4.34 4 3.68 4 3 4 C2.80664062 4.74765625 2.61328125 5.4953125 2.4140625 6.265625 C2.02347656 7.74289063 2.02347656 7.74289063 1.625 9.25 C1.36976563 10.22453125 1.11453125 11.1990625 0.8515625 12.203125 C0.10401491 14.65837303 -0.77123817 16.75617405 -2 19 C-3.08101555 15.75695334 -2.91566961 14.77391834 -2.125 11.5625 C-1.94195312 10.80066406 -1.75890625 10.03882813 -1.5703125 9.25390625 C-1.20247661 7.80019864 -0.82309795 6.3493397 -0.4296875 4.90234375 C0.11016117 2.83733101 0.11016117 2.83733101 0 0 Z " fill="#779552" transform="translate(156,21)"/>
<path d="M0 0 C1.65 0.33 3.3 0.66 5 1 C4.1875 2.9375 4.1875 2.9375 3 5 C2.01 5.33 1.02 5.66 0 6 C-0.66 9.96 -1.32 13.92 -2 18 C-2.33 18 -2.66 18 -3 18 C-2.67 12.72 -2.34 7.44 -2 2 C-1.34 2 -0.68 2 0 2 C0 1.34 0 0.68 0 0 Z " fill="#718D4E" transform="translate(166,19)"/>
<path d="M0 0 C0.33 0.66 0.66 1.32 1 2 C1.66 2 2.32 2 3 2 C3 2.66 3 3.32 3 4 C5.64 4.33 8.28 4.66 11 5 C10.67 5.99 10.34 6.98 10 8 C7.03 8 4.06 8 1 8 C0.67 6.35 0.34 4.7 0 3 C-0.33 3.66 -0.66 4.32 -1 5 C-0.67 3.35 -0.34 1.7 0 0 Z " fill="#6F874E" transform="translate(170,10)"/>
<path d="M0 0 C0.66 0 1.32 0 2 0 C1.52372025 1.95903745 1.04388577 3.91721097 0.5625 5.875 C0.29566406 6.96554688 0.02882813 8.05609375 -0.24609375 9.1796875 C-1 12 -1 12 -2 14 C-2.66 14 -3.32 14 -4 14 C-4.33 12.02 -4.66 10.04 -5 8 C-4.01 7.67 -3.02 7.34 -2 7 C-0.77030122 3.48809191 -0.77030122 3.48809191 0 0 Z " fill="#6B8746" transform="translate(26,28)"/>
<path d="M0 0 C0.66 0 1.32 0 2 0 C1.67 3.3 1.34 6.6 1 10 C0.34 10 -0.32 10 -1 10 C-1.33 10.99 -1.66 11.98 -2 13 C-2.66 12.34 -3.32 11.68 -4 11 C-3.57347992 7.16131924 -1.54664416 3.4967607 0 0 Z " fill="#647D40" transform="translate(85,32)"/>
<path d="M0 0 C0.66 0.33 1.32 0.66 2 1 C1.67 1.66 1.34 2.32 1 3 C1.89163577 5.11683841 1.89163577 5.11683841 3 7 C-0.45792689 8.58076658 -3.1831068 9.51579638 -7 9 C-7.66 8.01 -8.32 7.02 -9 6 C-6.03 6.495 -6.03 6.495 -3 7 C-3 6.01 -3 5.02 -3 4 C-1.5 1.8125 -1.5 1.8125 0 0 Z " fill="#5E763A" transform="translate(180,39)"/>
<path d="M0 0 C0.66 0.33 1.32 0.66 2 1 C1.77082032 2.60727327 1.51579198 4.21087416 1.25 5.8125 C1.04117188 7.15248047 1.04117188 7.15248047 0.828125 8.51953125 C-0.168841 11.50572658 -1.3582435 12.38380344 -4 14 C-4.63019694 4.82713348 -4.63019694 4.82713348 -2 1.375 C-1.34 0.92125 -0.68 0.4675 0 0 Z " fill="#6F8D48" transform="translate(46,26)"/>
<path d="M0 0 C0.75 1.6875 0.75 1.6875 1 4 C-0.875 6.5625 -0.875 6.5625 -3 9 C-3.33 9.99 -3.66 10.98 -4 12 C-4.99 12.495 -4.99 12.495 -6 13 C-5.67 13.66 -5.34 14.32 -5 15 C-7.9375 14.625 -7.9375 14.625 -11 14 C-11.33 13.34 -11.66 12.68 -12 12 C-11.0925 11.608125 -10.185 11.21625 -9.25 10.8125 C-4.59244951 8.21501992 -2.14323323 4.82227477 0 0 Z " fill="#586D3D" transform="translate(176,55)"/>
<path d="M0 0 C1.65 0.33 3.3 0.66 5 1 C4.85831863 2.43791516 4.71148957 3.8753237 4.5625 5.3125 C4.48128906 6.11300781 4.40007812 6.91351563 4.31640625 7.73828125 C4 10 4 10 3 13 C2.34 12.67 1.68 12.34 1 12 C1.875 5.25 1.875 5.25 3 3 C1.68 3 0.36 3 -1 3 C-0.67 2.01 -0.34 1.02 0 0 Z " fill="#5E7241" transform="translate(174,23)"/>
<path d="M0 0 C4.455 0.99 4.455 0.99 9 2 C8.67 2.66 8.34 3.32 8 4 C7.01 4 6.02 4 5 4 C5 4.66 5 5.32 5 6 C2.69 5.34 0.38 4.68 -2 4 C-1.34 2.68 -0.68 1.36 0 0 Z " fill="#5E7539" transform="translate(105,13)"/>
<path d="M0 0 C0.33 0 0.66 0 1 0 C2.70701221 5.89695128 0.95193635 10.41988817 -1 16 C-0.01 16 0.98 16 2 16 C2.33 15.01 2.66 14.02 3 13 C3.33 13.66 3.66 14.32 4 15 C3.67 15.99 3.34 16.98 3 18 C1.35 17.67 -0.3 17.34 -2 17 C-2.25287193 10.93107371 -1.69832609 5.83799592 0 0 Z " fill="#62714E" transform="translate(62,32)"/>
<path d="M0 0 C0.33 0 0.66 0 1 0 C1.67242473 3.95049531 2.02443311 7.55497581 1.875 11.5625 C1.80391011 15.71414953 2.79822704 18.42211894 5 22 C3.125 21.4375 3.125 21.4375 1 20 C-2.0147669 13.53978521 -0.76888571 6.909581 0 0 Z " fill="#5B6C3B" transform="translate(127,29)"/>
<path d="M0 0 C0.33 0 0.66 0 1 0 C1.33 2.31 1.66 4.62 2 7 C2.99 6.67 3.98 6.34 5 6 C5 7.65 5 9.3 5 11 C4.01 11.33 3.02 11.66 2 12 C2 11.34 2 10.68 2 10 C1.34 10 0.68 10 0 10 C-0.33 10.99 -0.66 11.98 -1 13 C-1.0272415 11.58344207 -1.04650467 10.16672955 -1.0625 8.75 C-1.07410156 7.96109375 -1.08570313 7.1721875 -1.09765625 6.359375 C-1.00385306 4.09308998 -0.63241063 2.1711105 0 0 Z " fill="#647A47" transform="translate(41,31)"/>
<path d="M0 0 C0.763125 0.20625 1.52625 0.4125 2.3125 0.625 C0.6625 2.605 -0.9875 4.585 -2.6875 6.625 C-3.6775 6.295 -4.6675 5.965 -5.6875 5.625 C-5.6875 4.305 -5.6875 2.985 -5.6875 1.625 C-2.6875 -0.375 -2.6875 -0.375 0 0 Z " fill="#657547" transform="translate(90.6875,13.375)"/>
<path d="M0 0 C1.97265625 1.30859375 1.97265625 1.30859375 4 3 C4.4375 6.0625 4.4375 6.0625 4 9 C3.01 9.66 2.02 10.32 1 11 C0 10 0 10 -0.09765625 7.71484375 C-0.08605469 6.79832031 -0.07445313 5.88179687 -0.0625 4.9375 C-0.05347656 4.01839844 -0.04445313 3.09929688 -0.03515625 2.15234375 C-0.02355469 1.44207031 -0.01195313 0.73179688 0 0 Z " fill="#687A49" transform="translate(100,21)"/>
<path d="M0 0 C0.66 0.33 1.32 0.66 2 1 C2 1.66 2 2.32 2 3 C3.98 3 5.96 3 8 3 C8 3.99 8 4.98 8 6 C1.9453125 6.9765625 1.9453125 6.9765625 0 7 C-0.66 6.34 -1.32 5.68 -2 5 C-1.46428571 1.46428571 -1.46428571 1.46428571 0 0 Z " fill="#5A6C36" transform="translate(9,9)"/>
<path d="M0 0 C-0.66 0.66 -1.32 1.32 -2 2 C-2 1.34 -2 0.68 -2 0 C-3.32 0 -4.64 0 -6 0 C-6.33 0.99 -6.66 1.98 -7 3 C-9.31 3.33 -11.62 3.66 -14 4 C-9.57536409 -0.91626212 -6.23496377 -3.2065528 0 0 Z " fill="#596F3A" transform="translate(151,6)"/>
<path d="M0 0 C0.33 0.66 0.66 1.32 1 2 C1.66 2 2.32 2 3 2 C3.38922918 3.28745036 3.76098036 4.58019597 4.125 5.875 C4.33382812 6.59429687 4.54265625 7.31359375 4.7578125 8.0546875 C4.83773437 8.69664063 4.91765625 9.33859375 5 10 C4.34 10.66 3.68 11.32 3 12 C0.01485372 7.89542386 -0.2954439 5.02254631 0 0 Z " fill="#677F3B" transform="translate(105,36)"/>
<path d="M0 0 C2.0625 0.4375 2.0625 0.4375 4 1 C3.01 1.33 2.02 1.66 1 2 C0.29094062 3.98536627 -0.36694179 5.98910922 -1 8 C-2.24224175 10.3981501 -3.60925157 12.68208596 -5 15 C-5.33 14.34 -5.66 13.68 -6 13 C-5.0390625 10.21484375 -5.0390625 10.21484375 -3.625 6.9375 C-3.16351563 5.85339844 -2.70203125 4.76929688 -2.2265625 3.65234375 C-1 1 -1 1 0 0 Z " fill="#637748" transform="translate(57,22)"/>
<path d="M0 0 C0.33 0 0.66 0 1 0 C1 1.65 1 3.3 1 5 C1.66 5 2.32 5 3 5 C3 7.64 3 10.28 3 13 C2.01 13.495 2.01 13.495 1 14 C0.34 13.34 -0.32 12.68 -1 12 C-0.9765625 9.1796875 -0.9765625 9.1796875 -0.625 5.875 C-0.51414063 4.77929688 -0.40328125 3.68359375 -0.2890625 2.5546875 C-0.14597656 1.29011719 -0.14597656 1.29011719 0 0 Z " fill="#68833C" transform="translate(162,32)"/>
<path d="M0 0 C0.66 0 1.32 0 2 0 C0.98408579 5.46864457 -0.07091057 10.76390013 -2 16 C-4 13 -4 13 -3.828125 10.87890625 C-3.63734375 10.11449219 -3.4465625 9.35007812 -3.25 8.5625 C-3.06953125 7.80066406 -2.8890625 7.03882813 -2.703125 6.25390625 C-2.00526654 4.0168822 -1.10784454 2.06077862 0 0 Z " fill="#7A9756" transform="translate(85,24)"/>
<path d="M0 0 C0.66 0 1.32 0 2 0 C1.67 3.96 1.34 7.92 1 12 C-0.32 11.67 -1.64 11.34 -3 11 C-3.33 9.68 -3.66 8.36 -4 7 C-2.02 7.99 -2.02 7.99 0 9 C-0.185625 8.071875 -0.37125 7.14375 -0.5625 6.1875 C-1 3 -1 3 0 0 Z " fill="#617245" transform="translate(14,40)"/>
<path d="M0 0 C0.33 0 0.66 0 1 0 C1.1953125 1.98567708 1.390625 3.97135417 1.5859375 5.95703125 C1.92665391 8.29988142 1.92665391 8.29988142 4 11 C0.75791433 10.64950425 -0.61527704 10.43778819 -2.8125 7.9375 C-3.204375 7.298125 -3.59625 6.65875 -4 6 C-3.01 6 -2.02 6 -1 6 C-1.33 5.34 -1.66 4.68 -2 4 C-1.34 4 -0.68 4 0 4 C0 2.68 0 1.36 0 0 Z " fill="#5D7343" transform="translate(165,39)"/>
<path d="M0 0 C1.59157575 3.1831515 0.77242108 5.61323065 0 9 C-2.0625 10.9375 -2.0625 10.9375 -4 12 C-5 10 -5 10 -4.51171875 8.125 C-4.23972656 7.42375 -3.96773437 6.7225 -3.6875 6 C-3.42324219 5.29875 -3.15898437 4.5975 -2.88671875 3.875 C-2 2 -2 2 0 0 Z " fill="#759251" transform="translate(176,26)"/>
<path d="M0 0 C1.32 0 2.64 0 4 0 C4.36923077 5.41538462 4.36923077 5.41538462 2.5 8.375 C2.005 8.91125 1.51 9.4475 1 10 C0.22157062 6.59437148 -0.09978121 3.49234244 0 0 Z " fill="#6C824C" transform="translate(36,26)"/>
<path d="M0 0 C0.66 0.33 1.32 0.66 2 1 C2.125 7.75 2.125 7.75 1 10 C0.01 10 -0.98 10 -2 10 C-1.85950482 8.52031676 -1.71245174 7.04125484 -1.5625 5.5625 C-1.48128906 4.73878906 -1.40007812 3.91507813 -1.31640625 3.06640625 C-1 1 -1 1 0 0 Z " fill="#6A7F45" transform="translate(152,14)"/>
<path d="M0 0 C1.32 0.33 2.64 0.66 4 1 C-1.14285714 6.57142857 -1.14285714 6.57142857 -5 7 C-5.33 6.01 -5.66 5.02 -6 4 C-4.7934375 3.566875 -4.7934375 3.566875 -3.5625 3.125 C-0.8673532 2.26737432 -0.8673532 2.26737432 0 0 Z " fill="#638535" transform="translate(145,6)"/>
<path d="M0 0 C0.66 0 1.32 0 2 0 C0.64002446 6.04433574 -2.85651794 9.63494136 -7 14 C-7 11 -7 11 -5.5625 9.5 C-5.046875 9.005 -4.53125 8.51 -4 8 C-3.67 7.01 -3.34 6.02 -3 5 C-2.34 5 -1.68 5 -1 5 C-0.67 3.35 -0.34 1.7 0 0 Z " fill="#5F7240" transform="translate(182,54)"/>
<path d="M0 0 C0.33 1.32 0.66 2.64 1 4 C1.99 3.01 2.98 2.02 4 1 C3.34 3.97 2.68 6.94 2 10 C1.67 9.34 1.34 8.68 1 8 C0.34 7.67 -0.32 7.34 -1 7 C-1.04254356 5.00045254 -1.04080783 2.99958364 -1 1 C-0.67 0.67 -0.34 0.34 0 0 Z " fill="#637B43" transform="translate(36,31)"/>
<path d="M0 0 C1.32 0.33 2.64 0.66 4 1 C3.01 1 2.02 1 1 1 C0.87882812 1.62648438 0.75765625 2.25296875 0.6328125 2.8984375 C0.46523437 3.71570313 0.29765625 4.53296875 0.125 5.375 C-0.03742188 6.18710937 -0.19984375 6.99921875 -0.3671875 7.8359375 C-1 10 -1 10 -3 12 C-3.88336837 9.5332355 -4.1312406 8.36140628 -3.22265625 5.859375 C-2.83980469 5.16328125 -2.45695312 4.4671875 -2.0625 3.75 C-1.68222656 3.04359375 -1.30195312 2.3371875 -0.91015625 1.609375 C-0.60980469 1.07828125 -0.30945313 0.5471875 0 0 Z " fill="#637746" transform="translate(67,20)"/>
<path d="M0 0 C-1.485 2.475 -1.485 2.475 -3 5 C-3.33 4.34 -3.66 3.68 -4 3 C-6.52733235 2.34444881 -6.52733235 2.34444881 -9 2 C-6.91519836 -2.16960328 -3.99201355 -0.78104613 0 0 Z " fill="#58723A" transform="translate(36,44)"/>
<path d="M0 0 C-1.485 2.475 -1.485 2.475 -3 5 C-3.99 4.67 -4.98 4.34 -6 4 C-6 2.68 -6 1.36 -6 0 C-2.25 -1.125 -2.25 -1.125 0 0 Z " fill="#687C47" transform="translate(163,15)"/>
<path d="M0 0 C2.31 0.33 4.62 0.66 7 1 C7 1.99 7 2.98 7 4 C4.69 4 2.38 4 0 4 C0 2.68 0 1.36 0 0 Z " fill="#617249" transform="translate(117,14)"/>
<path d="M0 0 C0.66 0 1.32 0 2 0 C1.38461538 5.53846154 1.38461538 5.53846154 -0.5625 7.875 C-1.036875 8.24625 -1.51125 8.6175 -2 9 C-2.33 8.34 -2.66 7.68 -3 7 C-2.06421005 4.64018187 -1.06652192 2.30368736 0 0 Z " fill="#5D7440" transform="translate(24,27)"/>
<path d="M0 0 C0.66 0.33 1.32 0.66 2 1 C1.67 2.65 1.34 4.3 1 6 C-0.98 6 -2.96 6 -5 6 C-5.33 5.34 -5.66 4.68 -6 4 C-4.35 4 -2.7 4 -1 4 C-0.67 2.68 -0.34 1.36 0 0 Z " fill="#687D46" transform="translate(173,63)"/>
<path d="M0 0 C0.66 0 1.32 0 2 0 C4.29013653 3.4352048 4.17842973 4.985331 4 9 C3.01 8.34 2.02 7.68 1 7 C0.3125 3.375 0.3125 3.375 0 0 Z " fill="#6B8444" transform="translate(95,36)"/>
<path d="M0 0 C1.9375 0.3125 1.9375 0.3125 4 1 C4.33 1.99 4.66 2.98 5 4 C4.34 4 3.68 4 3 4 C2.67 4.99 2.34 5.98 2 7 C0.5393715 4.35261084 0 3.10551666 0 0 Z " fill="#738751" transform="translate(156,21)"/>
<path d="M0 0 C2.875 -0.125 2.875 -0.125 6 0 C8 2 8 2 8 5 C5.03 4.505 5.03 4.505 2 4 C2.33 3.34 2.66 2.68 3 2 C2.01 1.34 1.02 0.68 0 0 Z " fill="#5B6B3C" transform="translate(73,22)"/>
<path d="M0 0 C0.66 0 1.32 0 2 0 C1.71872579 1.48117801 1.42466268 2.95993249 1.125 4.4375 C0.96257813 5.26121094 0.80015625 6.08492187 0.6328125 6.93359375 C0.31957031 7.95646484 0.31957031 7.95646484 0 9 C-0.99 9.495 -0.99 9.495 -2 10 C-1.125 2.25 -1.125 2.25 0 0 Z " fill="#789554" transform="translate(26,28)"/>
<path d="M0 0 C0.99 0 1.98 0 3 0 C3.33 1.32 3.66 2.64 4 4 C3.01 4.66 2.02 5.32 1 6 C0.01 5.01 -0.98 4.02 -2 3 C-1.34 2.01 -0.68 1.02 0 0 Z " fill="#637F36" transform="translate(30,22)"/>
<path d="M0 0 C0.99 0.33 1.98 0.66 3 1 C3.33 2.98 3.66 4.96 4 7 C3.01 7.33 2.02 7.66 1 8 C0.67 5.36 0.34 2.72 0 0 Z " fill="#6A8744" transform="translate(180,47)"/>
<path d="M0 0 C2.475 0.495 2.475 0.495 5 1 C5 1.99 5 2.98 5 4 C4.34 4 3.68 4 3 4 C2.34 4.99 1.68 5.98 1 7 C0.67 4.69 0.34 2.38 0 0 Z " fill="#5C7439" transform="translate(41,41)"/>
<path d="M0 0 C0.66 0 1.32 0 2 0 C1.67 2.97 1.34 5.94 1 9 C0.34 9 -0.32 9 -1 9 C-0.67 6.03 -0.34 3.06 0 0 Z " fill="#638046" transform="translate(163,22)"/>
<path d="M0 0 C0.66 0.33 1.32 0.66 2 1 C0.68 3.64 -0.64 6.28 -2 9 C-2.66 8.67 -3.32 8.34 -4 8 C-2.87548273 5.0280615 -1.77706209 2.66559313 0 0 Z " fill="#7C9757" transform="translate(137,15)"/>
<path d="M0 0 C2.31 0.33 4.62 0.66 7 1 C6.67 1.99 6.34 2.98 6 4 C3.69 3.67 1.38 3.34 -1 3 C-0.67 2.01 -0.34 1.02 0 0 Z " fill="#677848" transform="translate(174,14)"/>
<path d="M0 0 C0.99 0 1.98 0 3 0 C2.67 1.65 2.34 3.3 2 5 C1.01 5.33 0.02 5.66 -1 6 C-1.33 5.01 -1.66 4.02 -2 3 C-1.34 2.01 -0.68 1.02 0 0 Z " fill="#688144" transform="translate(112,9)"/>
<path d="M0 0 C0.66 0.66 1.32 1.32 2 2 C1.34 3.65 0.68 5.3 0 7 C-0.66 7 -1.32 7 -2 7 C-2.33 5.35 -2.66 3.7 -3 2 C-2.01 1.34 -1.02 0.68 0 0 Z " fill="#68843E" transform="translate(174,35)"/>
<path d="M0 0 C0.66 0.33 1.32 0.66 2 1 C2 2.32 2 3.64 2 5 C-0.31 5.33 -2.62 5.66 -5 6 C-5 5.34 -5 4.68 -5 4 C-3.35 3.67 -1.7 3.34 0 3 C0 2.01 0 1.02 0 0 Z " fill="#688247" transform="translate(115,13)"/>
<path d="M0 0 C0.68707555 2.49064888 1 4.37886292 1 7 C0.01 7.33 -0.98 7.66 -2 8 C-1.125 2.25 -1.125 2.25 0 0 Z " fill="#729151" transform="translate(186,34)"/>
<path d="M0 0 C0.33 0 0.66 0 1 0 C2.0257259 4.41062136 2.03684712 6.92630576 0 11 C-0.33 11 -0.66 11 -1 11 C-1.125 3.375 -1.125 3.375 0 0 Z " fill="#627742" transform="translate(62,32)"/>
<path d="M0 0 C0.66 0 1.32 0 2 0 C1.67 2.31 1.34 4.62 1 7 C0.01 6.67 -0.98 6.34 -2 6 C-1.49396008 3.83125748 -1.00016187 2.00032373 0 0 Z " fill="#607443" transform="translate(159,25)"/>
<path d="M0 0 C1.04449911 3.13349732 0.93423645 3.98968256 0 7 C-0.99 6.67 -1.98 6.34 -3 6 C-3 4.68 -3 3.36 -3 2 C-2.01 1.34 -1.02 0.68 0 0 Z M-2 3 C-1.67 3.66 -1.34 4.32 -1 5 C-0.67 4.34 -0.34 3.68 0 3 C-0.66 3 -1.32 3 -2 3 Z " fill="#5C6D41" transform="translate(88,13)"/>
</svg>
